<?xml version="1.0" encoding="utf-8"?>
<!-- Generator: Adobe Illustrator 21.0.0, SVG Export Plug-In . SVG Version: 6.00 Build 0)  -->
<svg version="1.1" id="图层_1" xmlns="http://www.w3.org/2000/svg" xmlns:xlink="http://www.w3.org/1999/xlink" x="0px" y="0px"
	 viewBox="0 0 50 50" style="enable-background:new 0 0 50 50;" xml:space="preserve">
<style type="text/css">
	.st0{fill:#FFFFFF;}
</style>
<path class="st0" d="M38.3,19.9c-3.8-3.1-7.5-4.3-13.3-4.3c-0.8,0-1.5,0-2.3,0.1c-0.1,0.2-0.1,0.3-0.2,0.5c0.8-0.1,1.6-0.1,2.5-0.1
	c5.7,0,9.4,1.2,13,4.2c1.2,1,2.2,2.5,2.6,4c-0.5-1.4-1.4-2.7-2.6-3.7c-3.4-2.7-7.4-3.9-13-3.9c-1,0-1.9,0-2.7,0.1
	c-0.1,0.2-0.1,0.4-0.2,0.5c0.9-0.1,1.9-0.1,3-0.1c5.5,0,9.4,1.2,12.7,3.8c1.3,1,2.1,2.4,2.5,3.6c-0.5-1.2-1.4-2.4-2.5-3.2
	C34.6,19.1,30.3,18,25,18c-1.1,0-2.2,0.1-3.2,0.2c-0.1,0.2-0.1,0.4-0.2,0.5c1.1-0.1,2.3-0.2,3.5-0.2c5.2,0,9.4,1.1,12.4,3.3
	c1.2,0.9,1.9,2,2.3,3c-0.4-0.9-1.2-1.9-2.3-2.7c-2.8-1.9-7.2-3-12.4-3c-1.3,0-2.6,0.1-3.8,0.2c-0.1,0.2-0.2,0.4-0.2,0.5
	c1.3-0.2,2.6-0.2,4-0.2c5.1,0,9.4,1,12.1,2.9c1,0.7,1.7,1.6,2.1,2.5c-0.4-0.7-1.2-1.5-2.2-2.1c-3.8-2.3-10.2-2.5-12.1-2.5
	c-0.8,0-2.4,0-4.3,0.3c-0.1,0.2-0.2,0.4-0.3,0.5c2-0.2,3.8-0.3,4.6-0.3c1.8,0,8.2,0.2,11.9,2.4c1.5,0.9,2.6,2.7,2.4,3.1
	c0.3,0.2,0.7,0.2,1,0.2c0.6-0.1,1-0.7,1.1-1.4C41.2,23.3,39.9,21.3,38.3,19.9z"/>
<path class="st0" d="M28.1,4.2c-0.2-0.5-0.4-1.1-0.6-1.6c-0.1,0.3-0.2,0.6-0.3,0.9c0.1,0.3,0.2,0.6,0.3,0.9c1.6,4.6,3,8.6,4.4,12
	c0.3,0.1,0.5,0.2,0.8,0.2C31.2,13.2,29.8,9,28.1,4.2z"/>
<path class="st0" d="M28.3,0.6c-0.1,0.3-0.2,0.6-0.3,0.9C30.1,7.9,32,13,33.5,17c0.3,0.1,0.5,0.2,0.8,0.4
	C32.7,13.2,30.7,7.6,28.3,0.6z"/>
<path class="st0" d="M27.2,5.7c-0.1-0.4-0.3-0.7-0.4-1.1c-0.1,0.3-0.2,0.6-0.3,0.9c0,0.1,0.1,0.3,0.1,0.4c1.3,3.8,2.5,7.2,3.7,10.2
	c0.2,0,0.5,0.1,0.7,0.2C29.8,13.1,28.5,9.6,27.2,5.7z"/>
<path class="st0" d="M26.1,6.6c-0.1,0.3-0.2,0.6-0.3,0.9c1,3,2,5.7,3,8.3c0.2,0,0.5,0.1,0.7,0.1C28.3,13.1,27.2,9.9,26.1,6.6z"/>
<path class="st0" d="M41.3,25.2C41.3,25.2,41.3,25.2,41.3,25.2C41.3,25.2,41.3,25.2,41.3,25.2c0,0.1,0,0.2,0,0.3c0,0,0,0,0,0
	c-0.1,0.4-0.3,0.8-0.7,1c0,0-0.1,0-0.1,0.1c0,0,0,0,0,0c-0.1,0-0.1,0-0.2,0c0,0,0,0,0,0c0,0,0,0,0,0c0,0,0,0,0,0c-0.2,0-0.3,0-0.5,0
	c0,0,0,0-0.1,0c0,0-0.1,0-0.1,0c0,0-0.1,0-0.1,0c0,0,0,0,0,0c-0.1,0-0.1,0-0.2-0.1c0,0,0,0,0,0c-0.1-0.1-0.3-0.2-0.4-0.3L38.7,26
	c-0.5-0.5-1.1-1.4-1.7-2.6c-0.1,0-0.1-0.1-0.2-0.1c-0.3-0.2-0.5-0.3-0.8-0.4c0.7,1.4,1.3,2.5,1.9,3.2c-0.7-0.6-1.3-1.4-2-2.4
	c-0.2-0.3-0.4-0.7-0.6-1.1c-0.3-0.1-0.6-0.2-0.9-0.3c0.3,0.6,0.6,1.2,1,1.7c1,1.6,2,2.7,3,3.2l0,0c0,0,0.1,0,0.1,0
	c-1.1-0.2-2.2-1.1-3.2-2.4C34.8,24,34.2,23,33.7,22c-0.3-0.1-0.6-0.2-0.8-0.2c0.7,1.3,1.4,2.4,2.1,3.4c1.1,1.5,2.5,2.5,3.8,2.7
	c0,0,0.2,0,0.3,0c0,0,0,0-0.1,0c0,0-0.1,0-0.1,0c-1.3,0.2-2.8-0.6-4-2c-1.1-1.3-2-2.8-2.9-4.5c-0.3-0.1-0.5-0.1-0.8-0.1
	c1,1.9,2,3.6,3.2,5c1.2,1.4,2.7,2.2,4.1,2.2c0.1,0,0.3,0,0.4,0c0.1,0,0.1,0,0.2,0c0.1,0,0.1,0,0.2,0c-1.2,0.6-3.3,0.5-5-1.3
	c-1.6-1.6-2.9-3.6-4.1-5.9c-0.3,0-0.5-0.1-0.7-0.1c1.3,2.5,2.7,4.7,4.4,6.5c1.2,1.3,2.7,1.8,4,1.8c0.9,0,1.7-0.2,2.3-0.7
	C41.3,27.8,41.4,26.2,41.3,25.2z"/>
<path class="st0" d="M25.3,8.6c0,0.1-0.1,0.2-0.1,0.3c-0.1,0.2-0.2,0.4-0.2,0.6c0.7,2.1,1.4,4.2,2.2,6.1c0.2,0,0.5,0,0.7,0.1
	C27,13.5,26.2,11.1,25.3,8.6z"/>
<path class="st0" d="M10.8,26.1c0.1-0.7,1-2,2.4-2.8c0,0,0,0,0,0c0.1-0.2,0.3-0.5,0.4-0.8c-0.2,0.1-0.5,0.2-0.7,0.4
	c-1.1,0.6-1.9,1.6-2.3,2.4c0.4-0.9,1.1-2,2.3-2.7c0.3-0.2,0.6-0.4,0.9-0.6c0.1-0.2,0.2-0.5,0.3-0.7c-0.6,0.3-1.1,0.6-1.6,0.9
	c-1.1,0.8-1.9,1.8-2.4,2.7c0.4-1,1.1-2.2,2.4-3.1c0.6-0.4,1.2-0.8,1.8-1.1c0.1-0.2,0.2-0.5,0.3-0.7c-0.9,0.4-1.7,0.9-2.4,1.4
	c-1.2,0.9-2,2.1-2.4,3.1c0.4-1.1,1.2-2.4,2.5-3.4c0.8-0.7,1.7-1.2,2.7-1.7c0.1-0.2,0.2-0.5,0.3-0.7c-1.2,0.5-2.2,1.2-3.3,2
	c-1.1,0.8-2,2-2.5,3.3c0.4-1.3,1.2-2.6,2.5-3.6c1.2-0.9,2.3-1.7,3.5-2.3c0.1-0.2,0.2-0.5,0.3-0.7c-1.4,0.7-2.8,1.5-4.1,2.6
	c-2.2,1.8-3.1,4.4-3,6.2c0,1.1,0.4,2,1.1,2.6c0.5,0.4,1.3,0.7,2.3,0.8C11.1,29.1,10.4,27.9,10.8,26.1z"/>
<path class="st0" d="M27.6,0.6c-1.1,2.9-2.1,5.6-3,8.1c-3.1,8.7-5.4,14.9-9,18.5c-1.1,1.1-2.6,1.7-3.7,1.6c0,0,0,0-0.1,0
	c1.1,0,2.4-0.7,3.5-2c3.3-3.7,5.7-10.3,8.7-18.7c0.9-2.4,1.8-4.9,2.7-7.5h-0.7c-1,2.5-1.8,4.9-2.7,7.3c-3,8.3-5.3,14.8-8.6,18.5
	c-1.1,1.2-2.4,1.9-3.3,1.8c0,0,0,0,0,0c1,0,2.1-0.8,3.2-2.2c2.9-3.7,5.3-10.6,8.2-18.6c0.8-2.2,1.6-4.4,2.4-6.7h-0.7
	c-0.8,2.2-1.6,4.4-2.4,6.5C19.5,15,17,21.9,14.2,25.5c-1.1,1.4-2.2,2.1-2.9,2c0,0,0,0,0,0c0.8-0.1,1.8-0.9,2.8-2.5
	c2.4-3.8,5-10.9,7.7-18.4c0.7-2,1.4-4,2.2-6h-0.7c-0.7,1.9-1.4,3.9-2.1,5.8c-2.7,7.5-5.2,14.6-7.6,18.3c-1,1.5-1.9,2.3-2.5,2.2
	c0,0,0,0,0,0c0.1,0,0.2,0,0.3-0.1c2.2-1,5.7-10.6,9.3-20.8c0.6-1.8,1.3-3.6,1.9-5.3h-0.7C21.2,2.3,20.6,4,20,5.7
	c-1.5,4.2-3.1,8.6-4.5,12.3c0,0,0,0,0,0l0,0c-0.2,0.5-0.4,0.9-0.6,1.4c0,0,0,0,0,0l0,0c-0.2,0.5-0.4,0.9-0.6,1.4c0,0,0,0,0,0l0,0
	c-0.2,0.4-0.4,0.9-0.6,1.3l0,0l0,0c-0.2,0.5-0.4,0.9-0.6,1.3c0,0,0,0,0,0l0,0c-0.8,1.6-1.5,2.6-2.1,2.9c-0.1,0.1-0.2,0.1-0.3,0
	c-0.3,1.7,0.3,2.8,1.2,3.2c0.1,0,0.2,0,0.2,0c1.2,0,2.7-0.7,3.8-1.8c3.7-3.6,6-10,9.2-18.7c0.9-2.5,1.9-5.3,3-8.3H27.6z"/>
<g>
	<path class="st0" d="M23.5,46.1c-0.2-0.2-0.5-0.8-0.7-1.1c-1-1.7-2.4-4-5.4-4c0.3,0.4,0.6,0.8,0.8,1.3c0.6,0.9,1.2,1.8,1.9,2.5
		c-1.1-0.3-2.3-0.7-3.3-1.1c-0.3-0.1-0.6-0.3-0.9-0.4c0,0,0,0,0,0c-0.2-0.3-0.3-0.7-0.4-1.1c-0.5-1.4-1.1-3.4-3.7-4.2
		c0.2,0.4,0.3,0.9,0.5,1.3c0.3,1,0.6,1.8,1.2,2.5c-1.1-0.8-2.2-1.7-3.2-2.6c0-0.3-0.1-0.6-0.1-1c-0.1-1.5-0.2-3.5-2.3-5
		c0,0.4,0,0.7,0.1,1c0,1,0.1,1.9,0.4,2.8c-0.9-1.2-1.7-2.4-2.3-3.8l0,0c0.1-0.3,0.1-0.6,0.2-0.9c0.4-1.4,1-3.3-0.5-5.4
		c-0.1,0.3-0.2,0.6-0.3,0.9c-0.3,1-0.6,1.9-0.5,2.9c-0.5-1.3-0.8-2.8-1-4.2c0.1-0.2,0.3-0.5,0.5-0.7c0.7-1.1,1.7-2.6,1-4.9
		c-0.2,0.2-0.3,0.5-0.5,0.7c-0.5,0.8-1,1.5-1.2,2.3c0-0.1,0-0.2,0-0.4c0-1.4,0.2-2.7,0.4-4c0.2-0.2,0.4-0.3,0.7-0.5
		c1.1-0.7,2.6-1.7,2.7-4.1c-0.2,0.2-0.4,0.3-0.6,0.5c-0.9,0.6-1.7,1.2-2.2,2.1c0.4-1.3,1-2.6,1.6-3.7c0.2-0.1,0.5-0.2,0.9-0.3
		c1.2-0.4,2.7-1,3.2-3c-0.4,0.2-0.8,0.3-1.1,0.5c-0.7,0.3-1.4,0.6-1.9,1.1C8.2,10.9,9,9.9,9.7,9c0.2-0.1,0.5-0.1,0.7-0.2
		c1.1-0.2,2.5-0.5,3.3-2.1C13.4,6.8,13,6.9,12.7,7c-0.6,0.1-1.2,0.3-1.7,0.5c0.8-0.9,1.5-1.6,1.8-1.8c1.6-0.3,2.2-1,2.8-1.6
		c0.3-0.3,0.6-0.6,1-0.9c-0.1,0-0.3,0-0.4,0c-0.9,0-1.9,0.3-2.6,0.9c-0.5,0.5-0.9,1-1,1.5c-0.6,0.6-1.3,1.2-1.9,1.8
		c0.5-0.9,0.7-2,0.9-2.8c0.1-0.4,0.2-0.8,0.3-1C9.5,4.7,9.5,7.1,9.4,8.4c0,0.2,0,0.3,0,0.4c-0.8,1-1.6,2-2.3,3.1
		c0.4-1.2,0.4-2.5,0.4-3.6c0-0.5,0-0.9,0.1-1.2C5.2,9.1,5.7,11.8,6,13.2c0,0.2,0.1,0.4,0.1,0.5c0,0,0,0,0,0
		c-0.7,1.2-1.2,2.5-1.7,3.8c0.1-1.3-0.2-2.8-0.5-3.9c-0.1-0.5-0.2-1-0.3-1.3c-2,2.6-0.8,5.3-0.1,6.7c0.1,0.2,0.2,0.4,0.3,0.5
		c0,0,0,0,0,0c-0.3,1.4-0.5,2.9-0.5,4.4c-0.4-1.1-1-2.2-1.5-3.1c-0.3-0.5-0.5-0.9-0.7-1.3C-0.1,22.7,2,25,3.1,26.2
		c0.2,0.2,0.3,0.3,0.4,0.5c0,0,0,0,0,0c0.2,1.4,0.5,2.7,0.9,4c-0.7-1-1.6-2-2.4-2.7c-0.5-0.4-0.9-0.8-1.1-1.1
		c-0.3,3.6,2.5,5.3,4,6.2c0.2,0.1,0.4,0.3,0.6,0.4c0,0,0,0,0,0c0.6,1.3,1.4,2.6,2.2,3.7c-1-0.7-2.2-1.2-3.1-1.6
		c-0.6-0.3-1.1-0.5-1.4-0.7c1,3.6,4.3,4.3,6.1,4.7c0.2,0.1,0.5,0.1,0.7,0.1c0,0,0,0,0,0c0.9,0.9,1.8,1.7,2.8,2.3
		c-1.2-0.3-2.5-0.5-3.5-0.6c-0.7-0.1-1.2-0.1-1.6-0.2c2.2,3.3,5.7,2.9,7.5,2.7c0.3,0,0.5-0.1,0.7-0.1c0.3,0.1,0.6,0.3,0.9,0.4
		c1,0.4,2.1,0.8,3.1,1c0.1,0,0.1,0,0.2,0c-1.4,0-2.8,0.2-4,0.4c-0.8,0.1-1.5,0.2-2,0.2c3,2.8,6.4,1.4,8.5,0.6
		C22.8,46.4,23.3,46.2,23.5,46.1z"/>
	<path class="st0" d="M20.2,48.7l1.4,0.8c0,0,0.9-1.6,2.6-2.7C24.2,46.8,22.5,46.8,20.2,48.7z"/>
</g>
<g>
	<path class="st0" d="M26.5,46.1c0.2-0.2,0.5-0.8,0.7-1.1c1-1.7,2.4-4,5.4-4c-0.3,0.4-0.6,0.8-0.8,1.3c-0.6,0.9-1.2,1.8-1.9,2.5
		c1.1-0.3,2.3-0.7,3.3-1.1c0.3-0.1,0.6-0.3,0.9-0.4c0,0,0,0,0,0c0.2-0.3,0.3-0.7,0.4-1.1c0.5-1.4,1.1-3.4,3.7-4.2
		c-0.2,0.4-0.3,0.9-0.5,1.3c-0.3,1-0.6,1.8-1.2,2.5c1.1-0.8,2.2-1.7,3.2-2.6c0-0.3,0.1-0.6,0.1-1c0.1-1.5,0.2-3.5,2.3-5
		c0,0.4,0,0.7-0.1,1c0,1-0.1,1.9-0.4,2.8c0.9-1.2,1.7-2.4,2.3-3.8c0,0,0,0,0,0c-0.1-0.3-0.1-0.6-0.2-0.9c-0.4-1.4-1-3.3,0.5-5.4
		c0.1,0.3,0.2,0.6,0.3,0.9c0.3,1,0.6,1.9,0.5,2.9c0.5-1.3,0.8-2.8,1-4.2c-0.1-0.2-0.3-0.5-0.5-0.7c-0.7-1.1-1.7-2.6-1-4.9
		c0.2,0.2,0.3,0.5,0.5,0.7c0.5,0.8,1,1.5,1.2,2.3c0-0.1,0-0.2,0-0.4c0-1.4-0.2-2.7-0.4-4c-0.2-0.2-0.4-0.3-0.7-0.5
		c-1.1-0.7-2.6-1.7-2.7-4.1c0.2,0.2,0.4,0.3,0.6,0.5c0.9,0.6,1.7,1.2,2.2,2.1c-0.4-1.3-1-2.6-1.6-3.7c-0.2-0.1-0.5-0.2-0.9-0.3
		c-1.2-0.4-2.7-1-3.2-3c0.4,0.2,0.8,0.3,1.1,0.5c0.7,0.3,1.4,0.6,1.9,1.1c-0.7-1.1-1.5-2.2-2.2-3C40,9,39.8,8.9,39.5,8.9
		c-1.1-0.2-2.5-0.5-3.3-2.1c0.3,0.1,0.6,0.1,0.9,0.2c0.6,0.1,1.2,0.3,1.7,0.5c-0.8-0.9-1.5-1.6-1.8-1.8c-1.6-0.3-2.2-1-2.8-1.6
		c-0.3-0.3-0.6-0.6-1-0.9c0.1,0,0.3,0,0.4,0c0.9,0,1.9,0.3,2.6,0.9c0.5,0.5,0.9,1,1,1.5c0.6,0.6,1.3,1.2,1.9,1.8
		c-0.5-0.9-0.7-2-0.9-2.8c-0.1-0.4-0.2-0.8-0.3-1c2.4,1.2,2.4,3.6,2.5,4.9c0,0.2,0,0.3,0,0.4c0.8,1,1.6,2,2.3,3.1
		c-0.4-1.2-0.4-2.5-0.4-3.6c0-0.5,0-0.9-0.1-1.2c2.4,1.9,1.9,4.6,1.6,6.1c0,0.2-0.1,0.4-0.1,0.5c0,0,0,0,0,0
		c0.7,1.2,1.2,2.5,1.7,3.8c-0.1-1.3,0.2-2.8,0.5-3.9c0.1-0.5,0.2-1,0.3-1.3c2,2.6,0.8,5.3,0.1,6.7c-0.1,0.2-0.2,0.4-0.3,0.5
		c0,0,0,0,0,0c0.3,1.4,0.5,2.9,0.5,4.4c0.4-1.1,1-2.2,1.5-3.1c0.3-0.5,0.5-0.9,0.7-1.3c1.2,3.2-0.8,5.4-1.9,6.7
		c-0.2,0.2-0.3,0.3-0.4,0.5c0,0,0,0,0,0c-0.2,1.4-0.5,2.7-0.9,4c0.7-1,1.6-2,2.4-2.7c0.5-0.4,0.9-0.8,1.1-1.1c0.3,3.6-2.5,5.3-4,6.2
		c-0.2,0.1-0.4,0.3-0.6,0.4c0,0,0,0,0,0c-0.6,1.3-1.4,2.6-2.2,3.7c1-0.7,2.2-1.2,3.1-1.6c0.6-0.3,1.1-0.5,1.4-0.7
		c-1,3.6-4.3,4.3-6.1,4.7c-0.2,0.1-0.5,0.1-0.7,0.1c0,0,0,0,0,0c-0.9,0.9-1.8,1.7-2.8,2.3c1.2-0.3,2.5-0.5,3.5-0.6
		c0.7-0.1,1.2-0.1,1.6-0.2c-2.2,3.3-5.7,2.9-7.5,2.7c-0.3,0-0.5-0.1-0.7-0.1c-0.3,0.1-0.6,0.3-0.9,0.4c-1,0.4-2.1,0.8-3.1,1
		c-0.1,0-0.1,0-0.2,0c1.4,0,2.8,0.2,4,0.4c0.8,0.1,1.5,0.2,2,0.2c-3,2.8-6.4,1.4-8.5,0.6C27.1,46.4,26.6,46.2,26.5,46.1z"/>
	<path class="st0" d="M29.7,48.7l-1.4,0.8c0,0-0.9-1.6-2.6-2.7C25.8,46.8,27.5,46.8,29.7,48.7z"/>
</g>
<g>
	<path class="st0" d="M24.4,31.5c-0.3-0.2-0.6-0.4-1-0.5c-0.4-0.1-0.7-0.1-1.1-0.1h-2v5.5h2c0.4,0,0.7-0.1,1.1-0.2
		c0.4-0.1,0.7-0.3,1-0.5c0.3-0.2,0.5-0.5,0.7-0.9c0.2-0.3,0.3-0.8,0.3-1.3c0-0.5-0.1-1-0.3-1.3C24.9,32,24.7,31.7,24.4,31.5z
		 M24.1,34.6c-0.1,0.2-0.3,0.4-0.5,0.6c-0.2,0.1-0.4,0.2-0.7,0.3c-0.3,0.1-0.5,0.1-0.8,0.1h-0.8v-3.8h0.8c0.3,0,0.5,0,0.8,0.1
		c0.3,0.1,0.5,0.1,0.7,0.3c0.2,0.1,0.4,0.3,0.5,0.6c0.1,0.3,0.2,0.6,0.2,1C24.3,34,24.2,34.4,24.1,34.6z"/>
	<polygon class="st0" points="27.3,34 29.8,34 29.8,33.2 27.3,33.2 27.3,31.8 30,31.8 30,30.9 26.3,30.9 26.3,36.4 30.1,36.4 
		30.1,35.6 27.3,35.6 	"/>
	<path class="st0" d="M35.1,35.1c-0.1,0.2-0.3,0.3-0.6,0.5c-0.2,0.1-0.5,0.2-0.8,0.2c-0.3,0-0.5,0-0.8-0.1c-0.2-0.1-0.4-0.2-0.6-0.4
		c-0.2-0.2-0.3-0.4-0.4-0.6c-0.1-0.3-0.1-0.5-0.1-0.8c0-0.3,0-0.6,0.1-0.8c0.1-0.2,0.2-0.5,0.4-0.6c0.2-0.2,0.4-0.3,0.6-0.4
		c0.2-0.1,0.5-0.2,0.8-0.2c0.2,0,0.5,0,0.7,0.1c0.2,0.1,0.4,0.2,0.6,0.4l0.8-0.6c-0.1-0.1-0.2-0.3-0.4-0.4c-0.2-0.1-0.3-0.2-0.5-0.3
		c-0.2-0.1-0.4-0.1-0.6-0.2c-0.2,0-0.4-0.1-0.6-0.1c-0.4,0-0.8,0.1-1.2,0.2c-0.4,0.1-0.7,0.3-1,0.6s-0.5,0.6-0.6,0.9
		c-0.2,0.4-0.2,0.8-0.2,1.2c0,0.4,0.1,0.8,0.2,1.2c0.1,0.4,0.3,0.7,0.6,0.9c0.3,0.3,0.6,0.5,0.9,0.6c0.4,0.1,0.8,0.2,1.2,0.2
		c0.5,0,0.9-0.1,1.2-0.3c0.4-0.2,0.7-0.4,0.9-0.7L35.1,35.1z"/>
	<path class="st0" d="M17.3,30.9h-0.8h0L14,36.4h1.1l0.5-1.3H18l0.5,1.3h1.1L17.3,30.9L17.3,30.9z M16.1,34.3l0.8-1.8l0.8,1.8H16.1z
		"/>
</g>
</svg>
